<svg id="visual" viewBox="0 0 900 300" width="900" height="300" xmlns="http://www.w3.org/2000/svg" xmlns:xlink="http://www.w3.org/1999/xlink" version="1.1"><rect x="0" y="0" width="900" height="300" fill="#9C19E0"></rect><g transform="translate(441.46037703846906 146.4547920310556)"><path d="M56.4 -61.3C80.7 -46.9 113.2 -36.3 120.1 -18.1C126.9 0 108.1 25.8 87 38.9C65.9 52 42.6 52.4 19.1 67.3C-4.3 82.2 -27.8 111.6 -51.3 114.5C-74.9 117.5 -98.5 94 -103.4 68.1C-108.3 42.3 -94.5 14 -89.4 -15.9C-84.3 -45.8 -87.8 -77.3 -74.3 -93.6C-60.9 -109.9 -30.4 -110.9 -7.2 -102.4C16.1 -93.8 32.1 -75.6 56.4 -61.3" fill="#6051cd"></path></g></svg>