<svg id="visual" viewBox="0 0 900 300" width="900" height="300" xmlns="http://www.w3.org/2000/svg" xmlns:xlink="http://www.w3.org/1999/xlink" version="1.1"><rect x="0" y="0" width="900" height="300" fill="#9C19E0"></rect><g transform="translate(445.7945354472489 139.34666069609625)"><path d="M72 -94.3C79.7 -79.3 63 -43.7 52.7 -21.3C42.4 1.2 38.5 10.6 38.7 33.6C38.8 56.6 43 93.1 29.5 111.1C16 129.1 -15.3 128.4 -36.6 114.6C-57.9 100.7 -69.2 73.6 -64.5 51.8C-59.9 29.9 -39.2 13.3 -33.6 -3.7C-28 -20.8 -37.4 -38.4 -34.4 -54.2C-31.3 -69.9 -15.6 -84 8.2 -93.8C32.1 -103.6 64.3 -109.3 72 -94.3" fill="#6051cd"></path></g></svg>