<svg id="visual" viewBox="0 0 900 300" width="900" height="300" xmlns="http://www.w3.org/2000/svg" xmlns:xlink="http://www.w3.org/1999/xlink" version="1.1"><rect x="0" y="0" width="900" height="300" fill="#FF5DA2"></rect><path d="M0 212L9.3 210.3C18.7 208.7 37.3 205.3 56.2 206.8C75 208.3 94 214.7 112.8 218.8C131.7 223 150.3 225 169 216.2C187.7 207.3 206.3 187.7 225 179C243.7 170.3 262.3 172.7 281.2 182.3C300 192 319 209 337.8 214.7C356.7 220.3 375.3 214.7 394 205.2C412.7 195.7 431.3 182.3 450 181.2C468.7 180 487.3 191 506.2 192C525 193 544 184 562.8 184.7C581.7 185.3 600.3 195.7 619 200.7C637.7 205.7 656.3 205.3 675 203C693.7 200.7 712.3 196.3 731.2 192.8C750 189.3 769 186.7 787.8 188.5C806.7 190.3 825.3 196.7 844 196.2C862.7 195.7 881.3 188.3 890.7 184.7L900 181L900 301L890.7 301C881.3 301 862.7 301 844 301C825.3 301 806.7 301 787.8 301C769 301 750 301 731.2 301C712.3 301 693.7 301 675 301C656.3 301 637.7 301 619 301C600.3 301 581.7 301 562.8 301C544 301 525 301 506.2 301C487.3 301 468.7 301 450 301C431.3 301 412.7 301 394 301C375.3 301 356.7 301 337.8 301C319 301 300 301 281.2 301C262.3 301 243.7 301 225 301C206.3 301 187.7 301 169 301C150.3 301 131.7 301 112.8 301C94 301 75 301 56.2 301C37.3 301 18.7 301 9.3 301L0 301Z" fill="#ff5da2"></path><path d="M0 194L9.3 198.7C18.7 203.3 37.3 212.7 56.2 213.5C75 214.3 94 206.7 112.8 203.3C131.7 200 150.3 201 169 199.5C187.7 198 206.3 194 225 192.7C243.7 191.3 262.3 192.7 281.2 198C300 203.3 319 212.7 337.8 216.3C356.7 220 375.3 218 394 219.5C412.7 221 431.3 226 450 220.5C468.7 215 487.3 199 506.2 192.5C525 186 544 189 562.8 196C581.7 203 600.3 214 619 217.8C637.7 221.7 656.3 218.3 675 215.7C693.7 213 712.3 211 731.2 205.7C750 200.3 769 191.7 787.8 190.2C806.7 188.7 825.3 194.3 844 195.3C862.7 196.3 881.3 192.7 890.7 190.8L900 189L900 301L890.7 301C881.3 301 862.7 301 844 301C825.3 301 806.7 301 787.8 301C769 301 750 301 731.2 301C712.3 301 693.7 301 675 301C656.3 301 637.7 301 619 301C600.3 301 581.7 301 562.8 301C544 301 525 301 506.2 301C487.3 301 468.7 301 450 301C431.3 301 412.7 301 394 301C375.3 301 356.7 301 337.8 301C319 301 300 301 281.2 301C262.3 301 243.7 301 225 301C206.3 301 187.7 301 169 301C150.3 301 131.7 301 112.8 301C94 301 75 301 56.2 301C37.3 301 18.7 301 9.3 301L0 301Z" fill="#f84ba8"></path><path d="M0 235L9.3 236.2C18.7 237.3 37.3 239.7 56.2 239.8C75 240 94 238 112.8 237.2C131.7 236.3 150.3 236.7 169 231.3C187.7 226 206.3 215 225 209.5C243.7 204 262.3 204 281.2 205.3C300 206.7 319 209.3 337.8 210.2C356.7 211 375.3 210 394 213.7C412.7 217.3 431.3 225.7 450 231C468.7 236.3 487.3 238.7 506.2 234.3C525 230 544 219 562.8 217C581.7 215 600.3 222 619 224.7C637.7 227.3 656.3 225.7 675 221.5C693.7 217.3 712.3 210.7 731.2 209C750 207.3 769 210.7 787.8 215.8C806.7 221 825.3 228 844 226.7C862.7 225.3 881.3 215.7 890.7 210.8L900 206L900 301L890.7 301C881.3 301 862.7 301 844 301C825.3 301 806.7 301 787.8 301C769 301 750 301 731.2 301C712.3 301 693.7 301 675 301C656.3 301 637.7 301 619 301C600.3 301 581.7 301 562.8 301C544 301 525 301 506.2 301C487.3 301 468.7 301 450 301C431.3 301 412.7 301 394 301C375.3 301 356.7 301 337.8 301C319 301 300 301 281.2 301C262.3 301 243.7 301 225 301C206.3 301 187.7 301 169 301C150.3 301 131.7 301 112.8 301C94 301 75 301 56.2 301C37.3 301 18.7 301 9.3 301L0 301Z" fill="#ee39b1"></path><path d="M0 245L9.3 243.7C18.7 242.3 37.3 239.7 56.2 240C75 240.3 94 243.7 112.8 244.5C131.7 245.3 150.3 243.7 169 238.7C187.7 233.7 206.3 225.3 225 227.8C243.7 230.3 262.3 243.7 281.2 244C300 244.3 319 231.7 337.8 230.8C356.7 230 375.3 241 394 247.3C412.7 253.7 431.3 255.3 450 251.7C468.7 248 487.3 239 506.2 237.7C525 236.3 544 242.7 562.8 244.3C581.7 246 600.3 243 619 240C637.7 237 656.3 234 675 230C693.7 226 712.3 221 731.2 223.8C750 226.7 769 237.3 787.8 243.7C806.7 250 825.3 252 844 252.2C862.7 252.3 881.3 250.7 890.7 249.8L900 249L900 301L890.7 301C881.3 301 862.7 301 844 301C825.3 301 806.7 301 787.8 301C769 301 750 301 731.2 301C712.3 301 693.7 301 675 301C656.3 301 637.7 301 619 301C600.3 301 581.7 301 562.8 301C544 301 525 301 506.2 301C487.3 301 468.7 301 450 301C431.3 301 412.7 301 394 301C375.3 301 356.7 301 337.8 301C319 301 300 301 281.2 301C262.3 301 243.7 301 225 301C206.3 301 187.7 301 169 301C150.3 301 131.7 301 112.8 301C94 301 75 301 56.2 301C37.3 301 18.7 301 9.3 301L0 301Z" fill="#e128bb"></path><path d="M0 233L9.3 233.3C18.7 233.7 37.3 234.3 56.2 239.7C75 245 94 255 112.8 257C131.7 259 150.3 253 169 253.3C187.7 253.7 206.3 260.3 225 261.5C243.7 262.7 262.3 258.3 281.2 252.7C300 247 319 240 337.8 242.7C356.7 245.3 375.3 257.7 394 262.8C412.7 268 431.3 266 450 263.2C468.7 260.3 487.3 256.7 506.2 253C525 249.3 544 245.7 562.8 248.2C581.7 250.7 600.3 259.3 619 262C637.7 264.7 656.3 261.3 675 257.7C693.7 254 712.3 250 731.2 252C750 254 769 262 787.8 263.3C806.7 264.7 825.3 259.3 844 259.3C862.7 259.3 881.3 264.7 890.7 267.3L900 270L900 301L890.7 301C881.3 301 862.7 301 844 301C825.3 301 806.7 301 787.8 301C769 301 750 301 731.2 301C712.3 301 693.7 301 675 301C656.3 301 637.7 301 619 301C600.3 301 581.7 301 562.8 301C544 301 525 301 506.2 301C487.3 301 468.7 301 450 301C431.3 301 412.7 301 394 301C375.3 301 356.7 301 337.8 301C319 301 300 301 281.2 301C262.3 301 243.7 301 225 301C206.3 301 187.7 301 169 301C150.3 301 131.7 301 112.8 301C94 301 75 301 56.2 301C37.3 301 18.7 301 9.3 301L0 301Z" fill="#d019c6"></path><path d="M0 267L9.3 267.5C18.7 268 37.3 269 56.2 271C75 273 94 276 112.8 275.8C131.7 275.7 150.3 272.3 169 269.8C187.7 267.3 206.3 265.7 225 266.5C243.7 267.3 262.3 270.7 281.2 272.5C300 274.3 319 274.7 337.8 271.7C356.7 268.7 375.3 262.3 394 262.2C412.7 262 431.3 268 450 272C468.7 276 487.3 278 506.2 278.3C525 278.7 544 277.3 562.8 277.7C581.7 278 600.3 280 619 279C637.7 278 656.3 274 675 270C693.7 266 712.3 262 731.2 262.2C750 262.3 769 266.7 787.8 265.7C806.7 264.7 825.3 258.3 844 257.7C862.7 257 881.3 262 890.7 264.5L900 267L900 301L890.7 301C881.3 301 862.7 301 844 301C825.3 301 806.7 301 787.8 301C769 301 750 301 731.2 301C712.3 301 693.7 301 675 301C656.3 301 637.7 301 619 301C600.3 301 581.7 301 562.8 301C544 301 525 301 506.2 301C487.3 301 468.7 301 450 301C431.3 301 412.7 301 394 301C375.3 301 356.7 301 337.8 301C319 301 300 301 281.2 301C262.3 301 243.7 301 225 301C206.3 301 187.7 301 169 301C150.3 301 131.7 301 112.8 301C94 301 75 301 56.2 301C37.3 301 18.7 301 9.3 301L0 301Z" fill="#b913d3"></path><path d="M0 268L9.3 269.2C18.7 270.3 37.3 272.7 56.2 273.5C75 274.3 94 273.7 112.8 276.7C131.7 279.7 150.3 286.3 169 289.3C187.7 292.3 206.3 291.7 225 291.2C243.7 290.7 262.3 290.3 281.2 289.3C300 288.3 319 286.7 337.8 286C356.7 285.3 375.3 285.7 394 285C412.7 284.3 431.3 282.7 450 282.5C468.7 282.3 487.3 283.7 506.2 282.8C525 282 544 279 562.8 277.5C581.7 276 600.3 276 619 277.8C637.7 279.7 656.3 283.3 675 282C693.7 280.7 712.3 274.3 731.2 275.2C750 276 769 284 787.8 285.7C806.7 287.3 825.3 282.7 844 279.5C862.7 276.3 881.3 274.7 890.7 273.8L900 273L900 301L890.7 301C881.3 301 862.7 301 844 301C825.3 301 806.7 301 787.8 301C769 301 750 301 731.2 301C712.3 301 693.7 301 675 301C656.3 301 637.7 301 619 301C600.3 301 581.7 301 562.8 301C544 301 525 301 506.2 301C487.3 301 468.7 301 450 301C431.3 301 412.7 301 394 301C375.3 301 356.7 301 337.8 301C319 301 300 301 281.2 301C262.3 301 243.7 301 225 301C206.3 301 187.7 301 169 301C150.3 301 131.7 301 112.8 301C94 301 75 301 56.2 301C37.3 301 18.7 301 9.3 301L0 301Z" fill="#9c19e0"></path></svg>