<svg id="visual" viewBox="0 0 900 300" width="900" height="300" xmlns="http://www.w3.org/2000/svg" xmlns:xlink="http://www.w3.org/1999/xlink" version="1.1"><rect x="0" y="0" width="900" height="300" fill="#9C19E0"></rect><path d="M0 218L25 215.7C50 213.3 100 208.7 150 201.8C200 195 250 186 300 179.7C350 173.3 400 169.7 450 169.3C500 169 550 172 600 178.8C650 185.7 700 196.3 750 195.5C800 194.7 850 182.3 875 176.2L900 170L900 301L875 301C850 301 800 301 750 301C700 301 650 301 600 301C550 301 500 301 450 301C400 301 350 301 300 301C250 301 200 301 150 301C100 301 50 301 25 301L0 301Z" fill="#9c19e0"></path><path d="M0 188L25 194.5C50 201 100 214 150 215C200 216 250 205 300 206.2C350 207.3 400 220.7 450 219.8C500 219 550 204 600 195.3C650 186.7 700 184.3 750 186.2C800 188 850 194 875 197L900 200L900 301L875 301C850 301 800 301 750 301C700 301 650 301 600 301C550 301 500 301 450 301C400 301 350 301 300 301C250 301 200 301 150 301C100 301 50 301 25 301L0 301Z" fill="#821bcd"></path><path d="M0 242L25 238.5C50 235 100 228 150 227.7C200 227.3 250 233.7 300 235C350 236.3 400 232.7 450 230.7C500 228.7 550 228.3 600 223.2C650 218 700 208 750 207.7C800 207.3 850 216.7 875 221.3L900 226L900 301L875 301C850 301 800 301 750 301C700 301 650 301 600 301C550 301 500 301 450 301C400 301 350 301 300 301C250 301 200 301 150 301C100 301 50 301 25 301L0 301Z" fill="#691bba"></path><path d="M0 260L25 257.3C50 254.7 100 249.3 150 242.8C200 236.3 250 228.7 300 230.2C350 231.7 400 242.3 450 246.2C500 250 550 247 600 245C650 243 700 242 750 243.5C800 245 850 249 875 251L900 253L900 301L875 301C850 301 800 301 750 301C700 301 650 301 600 301C550 301 500 301 450 301C400 301 350 301 300 301C250 301 200 301 150 301C100 301 50 301 25 301L0 301Z" fill="#5119a7"></path><path d="M0 241L25 244.3C50 247.7 100 254.3 150 258.3C200 262.3 250 263.7 300 261.8C350 260 400 255 450 254.5C500 254 550 258 600 256.5C650 255 700 248 750 247.2C800 246.3 850 251.7 875 254.3L900 257L900 301L875 301C850 301 800 301 750 301C700 301 650 301 600 301C550 301 500 301 450 301C400 301 350 301 300 301C250 301 200 301 150 301C100 301 50 301 25 301L0 301Z" fill="#391693"></path><path d="M0 268L25 269.5C50 271 100 274 150 273.5C200 273 250 269 300 269.7C350 270.3 400 275.7 450 274.7C500 273.7 550 266.3 600 262.3C650 258.3 700 257.7 750 260.5C800 263.3 850 269.7 875 272.8L900 276L900 301L875 301C850 301 800 301 750 301C700 301 650 301 600 301C550 301 500 301 450 301C400 301 350 301 300 301C250 301 200 301 150 301C100 301 50 301 25 301L0 301Z" fill="#21127f"></path><path d="M0 290L25 287.8C50 285.7 100 281.3 150 280.5C200 279.7 250 282.3 300 284.3C350 286.3 400 287.7 450 285.3C500 283 550 277 600 273.7C650 270.3 700 269.7 750 269.5C800 269.3 850 269.7 875 269.8L900 270L900 301L875 301C850 301 800 301 750 301C700 301 650 301 600 301C550 301 500 301 450 301C400 301 350 301 300 301C250 301 200 301 150 301C100 301 50 301 25 301L0 301Z" fill="#000d6b"></path></svg>