<svg id="visual" viewBox="0 0 900 300" width="900" height="300" xmlns="http://www.w3.org/2000/svg" xmlns:xlink="http://www.w3.org/1999/xlink" version="1.1"><rect x="0" y="0" width="900" height="300" fill="#77ACF1"></rect><path d="M0 180L7.5 187.3C15 194.7 30 209.3 45 204C60 198.7 75 173.3 90 176.7C105 180 120 212 135 222.3C150 232.7 165 221.3 180 218.7C195 216 210 222 225 208.8C240 195.7 255 163.3 270 155C285 146.7 300 162.3 315 168.2C330 174 345 170 360 175.3C375 180.7 390 195.3 405 200.3C420 205.3 435 200.7 450 195.2C465 189.7 480 183.3 495 171.8C510 160.3 525 143.7 540 138.3C555 133 570 139 585 159.5C600 180 615 215 630 233.8C645 252.7 660 255.3 675 232.5C690 209.7 705 161.3 720 149.7C735 138 750 163 765 178.2C780 193.3 795 198.7 810 192.3C825 186 840 168 855 176.3C870 184.7 885 219.3 892.5 236.7L900 254L900 0L892.5 0C885 0 870 0 855 0C840 0 825 0 810 0C795 0 780 0 765 0C750 0 735 0 720 0C705 0 690 0 675 0C660 0 645 0 630 0C615 0 600 0 585 0C570 0 555 0 540 0C525 0 510 0 495 0C480 0 465 0 450 0C435 0 420 0 405 0C390 0 375 0 360 0C345 0 330 0 315 0C300 0 285 0 270 0C255 0 240 0 225 0C210 0 195 0 180 0C165 0 150 0 135 0C120 0 105 0 90 0C75 0 60 0 45 0C30 0 15 0 7.5 0L0 0Z" fill="#77acf1"></path><path d="M0 223L7.5 210.8C15 198.7 30 174.3 45 159.3C60 144.3 75 138.7 90 138.5C105 138.3 120 143.7 135 139.3C150 135 165 121 180 134C195 147 210 187 225 189.8C240 192.7 255 158.3 270 138.8C285 119.3 300 114.7 315 116C330 117.3 345 124.7 360 123C375 121.3 390 110.7 405 105.7C420 100.7 435 101.3 450 120.8C465 140.3 480 178.7 495 181.8C510 185 525 153 540 142.5C555 132 570 143 585 149.5C600 156 615 158 630 152.3C645 146.7 660 133.3 675 123.2C690 113 705 106 720 115C735 124 750 149 765 157.8C780 166.7 795 159.3 810 145.7C825 132 840 112 855 108.2C870 104.3 885 116.7 892.5 122.8L900 129L900 0L892.5 0C885 0 870 0 855 0C840 0 825 0 810 0C795 0 780 0 765 0C750 0 735 0 720 0C705 0 690 0 675 0C660 0 645 0 630 0C615 0 600 0 585 0C570 0 555 0 540 0C525 0 510 0 495 0C480 0 465 0 450 0C435 0 420 0 405 0C390 0 375 0 360 0C345 0 330 0 315 0C300 0 285 0 270 0C255 0 240 0 225 0C210 0 195 0 180 0C165 0 150 0 135 0C120 0 105 0 90 0C75 0 60 0 45 0C30 0 15 0 7.5 0L0 0Z" fill="#5f91dc"></path><path d="M0 111L7.5 116.2C15 121.3 30 131.7 45 134.5C60 137.3 75 132.7 90 123.7C105 114.7 120 101.3 135 92.7C150 84 165 80 180 91.7C195 103.3 210 130.7 225 133.8C240 137 255 116 270 109C285 102 300 109 315 108.5C330 108 345 100 360 98.7C375 97.3 390 102.7 405 113.8C420 125 435 142 450 152C465 162 480 165 495 161.5C510 158 525 148 540 144.3C555 140.7 570 143.3 585 136.5C600 129.7 615 113.3 630 121.3C645 129.3 660 161.7 675 168.2C690 174.7 705 155.3 720 152.2C735 149 750 162 765 152.3C780 142.7 795 110.3 810 107.8C825 105.3 840 132.7 855 135.5C870 138.3 885 116.7 892.5 105.8L900 95L900 0L892.5 0C885 0 870 0 855 0C840 0 825 0 810 0C795 0 780 0 765 0C750 0 735 0 720 0C705 0 690 0 675 0C660 0 645 0 630 0C615 0 600 0 585 0C570 0 555 0 540 0C525 0 510 0 495 0C480 0 465 0 450 0C435 0 420 0 405 0C390 0 375 0 360 0C345 0 330 0 315 0C300 0 285 0 270 0C255 0 240 0 225 0C210 0 195 0 180 0C165 0 150 0 135 0C120 0 105 0 90 0C75 0 60 0 45 0C30 0 15 0 7.5 0L0 0Z" fill="#4a76c7"></path><path d="M0 76L7.5 80.5C15 85 30 94 45 96.2C60 98.3 75 93.7 90 86C105 78.3 120 67.7 135 63.2C150 58.7 165 60.3 180 77C195 93.7 210 125.3 225 141C240 156.7 255 156.3 270 142.8C285 129.3 300 102.7 315 93.5C330 84.3 345 92.7 360 104.5C375 116.3 390 131.7 405 131.8C420 132 435 117 450 114.2C465 111.3 480 120.7 495 121.8C510 123 525 116 540 104C555 92 570 75 585 80.5C600 86 615 114 630 122.7C645 131.3 660 120.7 675 117C690 113.3 705 116.7 720 111.7C735 106.7 750 93.3 765 90.7C780 88 795 96 810 94.8C825 93.7 840 83.3 855 81C870 78.7 885 84.3 892.5 87.2L900 90L900 0L892.5 0C885 0 870 0 855 0C840 0 825 0 810 0C795 0 780 0 765 0C750 0 735 0 720 0C705 0 690 0 675 0C660 0 645 0 630 0C615 0 600 0 585 0C570 0 555 0 540 0C525 0 510 0 495 0C480 0 465 0 450 0C435 0 420 0 405 0C390 0 375 0 360 0C345 0 330 0 315 0C300 0 285 0 270 0C255 0 240 0 225 0C210 0 195 0 180 0C165 0 150 0 135 0C120 0 105 0 90 0C75 0 60 0 45 0C30 0 15 0 7.5 0L0 0Z" fill="#365cb1"></path><path d="M0 82L7.5 89.7C15 97.3 30 112.7 45 114.5C60 116.3 75 104.7 90 92C105 79.3 120 65.7 135 60C150 54.3 165 56.7 180 54.8C195 53 210 47 225 58.5C240 70 255 99 270 112.2C285 125.3 300 122.7 315 120C330 117.3 345 114.7 360 105.2C375 95.7 390 79.3 405 72.3C420 65.3 435 67.7 450 67.5C465 67.3 480 64.7 495 69.5C510 74.3 525 86.7 540 89.8C555 93 570 87 585 89.3C600 91.7 615 102.3 630 108.7C645 115 660 117 675 112.3C690 107.7 705 96.3 720 88.3C735 80.3 750 75.7 765 80.5C780 85.3 795 99.7 810 103.5C825 107.3 840 100.7 855 99.2C870 97.7 885 101.3 892.5 103.2L900 105L900 0L892.5 0C885 0 870 0 855 0C840 0 825 0 810 0C795 0 780 0 765 0C750 0 735 0 720 0C705 0 690 0 675 0C660 0 645 0 630 0C615 0 600 0 585 0C570 0 555 0 540 0C525 0 510 0 495 0C480 0 465 0 450 0C435 0 420 0 405 0C390 0 375 0 360 0C345 0 330 0 315 0C300 0 285 0 270 0C255 0 240 0 225 0C210 0 195 0 180 0C165 0 150 0 135 0C120 0 105 0 90 0C75 0 60 0 45 0C30 0 15 0 7.5 0L0 0Z" fill="#24429a"></path><path d="M0 34L7.5 32.5C15 31 30 28 45 29.7C60 31.3 75 37.7 90 46.2C105 54.7 120 65.3 135 72.7C150 80 165 84 180 82.5C195 81 210 74 225 64.2C240 54.3 255 41.7 270 45.2C285 48.7 300 68.3 315 69.8C330 71.3 345 54.7 360 54.5C375 54.3 390 70.7 405 76.3C420 82 435 77 450 77C465 77 480 82 495 79.8C510 77.7 525 68.3 540 61.7C555 55 570 51 585 49.3C600 47.7 615 48.3 630 51.8C645 55.3 660 61.7 675 59.3C690 57 705 46 720 44.5C735 43 750 51 765 55C780 59 795 59 810 53.3C825 47.7 840 36.3 855 31.5C870 26.7 885 28.3 892.5 29.2L900 30L900 0L892.5 0C885 0 870 0 855 0C840 0 825 0 810 0C795 0 780 0 765 0C750 0 735 0 720 0C705 0 690 0 675 0C660 0 645 0 630 0C615 0 600 0 585 0C570 0 555 0 540 0C525 0 510 0 495 0C480 0 465 0 450 0C435 0 420 0 405 0C390 0 375 0 360 0C345 0 330 0 315 0C300 0 285 0 270 0C255 0 240 0 225 0C210 0 195 0 180 0C165 0 150 0 135 0C120 0 105 0 90 0C75 0 60 0 45 0C30 0 15 0 7.5 0L0 0Z" fill="#132883"></path><path d="M0 54L7.5 47.7C15 41.3 30 28.7 45 29.2C60 29.7 75 43.3 90 49.3C105 55.3 120 53.7 135 49.3C150 45 165 38 180 39.7C195 41.3 210 51.7 225 55.8C240 60 255 58 270 50.8C285 43.7 300 31.3 315 23.3C330 15.3 345 11.7 360 10.2C375 8.7 390 9.3 405 8.8C420 8.3 435 6.7 450 11.7C465 16.7 480 28.3 495 33.7C510 39 525 38 540 36.3C555 34.7 570 32.3 585 28.7C600 25 615 20 630 22.3C645 24.7 660 34.3 675 42.3C690 50.3 705 56.7 720 52.8C735 49 750 35 765 27.3C780 19.7 795 18.3 810 17C825 15.7 840 14.3 855 15.5C870 16.7 885 20.3 892.5 22.2L900 24L900 0L892.5 0C885 0 870 0 855 0C840 0 825 0 810 0C795 0 780 0 765 0C750 0 735 0 720 0C705 0 690 0 675 0C660 0 645 0 630 0C615 0 600 0 585 0C570 0 555 0 540 0C525 0 510 0 495 0C480 0 465 0 450 0C435 0 420 0 405 0C390 0 375 0 360 0C345 0 330 0 315 0C300 0 285 0 270 0C255 0 240 0 225 0C210 0 195 0 180 0C165 0 150 0 135 0C120 0 105 0 90 0C75 0 60 0 45 0C30 0 15 0 7.5 0L0 0Z" fill="#000d6b"></path></svg>