<svg id="visual" viewBox="0 0 900 300" width="900" height="300" xmlns="http://www.w3.org/2000/svg" xmlns:xlink="http://www.w3.org/1999/xlink" version="1.1"><rect x="0" y="0" width="900" height="300" fill="#77ACF1"></rect><path d="M0 222L7.5 215.7C15 209.3 30 196.7 45 180.8C60 165 75 146 90 155.8C105 165.7 120 204.3 135 209.5C150 214.7 165 186.3 180 170C195 153.7 210 149.3 225 165.3C240 181.3 255 217.7 270 212.8C285 208 300 162 315 146.2C330 130.3 345 144.7 360 149.5C375 154.3 390 149.7 405 147.3C420 145 435 145 450 155.3C465 165.7 480 186.3 495 186.2C510 186 525 165 540 166.3C555 167.7 570 191.3 585 201.7C600 212 615 209 630 195.8C645 182.7 660 159.3 675 153.3C690 147.3 705 158.7 720 178.5C735 198.3 750 226.7 765 232.5C780 238.3 795 221.7 810 217.5C825 213.3 840 221.7 855 224.2C870 226.7 885 223.3 892.5 221.7L900 220L900 0L892.5 0C885 0 870 0 855 0C840 0 825 0 810 0C795 0 780 0 765 0C750 0 735 0 720 0C705 0 690 0 675 0C660 0 645 0 630 0C615 0 600 0 585 0C570 0 555 0 540 0C525 0 510 0 495 0C480 0 465 0 450 0C435 0 420 0 405 0C390 0 375 0 360 0C345 0 330 0 315 0C300 0 285 0 270 0C255 0 240 0 225 0C210 0 195 0 180 0C165 0 150 0 135 0C120 0 105 0 90 0C75 0 60 0 45 0C30 0 15 0 7.5 0L0 0Z" fill="#77acf1"></path><path d="M0 230L7.5 222.3C15 214.7 30 199.3 45 179.8C60 160.3 75 136.7 90 134.7C105 132.7 120 152.3 135 159.5C150 166.7 165 161.3 180 161.2C195 161 210 166 225 170.5C240 175 255 179 270 189.3C285 199.7 300 216.3 315 205.5C330 194.7 345 156.3 360 143.7C375 131 390 144 405 145C420 146 435 135 450 143.3C465 151.7 480 179.3 495 188C510 196.7 525 186.3 540 171.8C555 157.3 570 138.7 585 142.7C600 146.7 615 173.3 630 180.5C645 187.7 660 175.3 675 175C690 174.7 705 186.3 720 185.3C735 184.3 750 170.7 765 157.5C780 144.3 795 131.7 810 141.2C825 150.7 840 182.3 855 185.3C870 188.3 885 162.7 892.5 149.8L900 137L900 0L892.5 0C885 0 870 0 855 0C840 0 825 0 810 0C795 0 780 0 765 0C750 0 735 0 720 0C705 0 690 0 675 0C660 0 645 0 630 0C615 0 600 0 585 0C570 0 555 0 540 0C525 0 510 0 495 0C480 0 465 0 450 0C435 0 420 0 405 0C390 0 375 0 360 0C345 0 330 0 315 0C300 0 285 0 270 0C255 0 240 0 225 0C210 0 195 0 180 0C165 0 150 0 135 0C120 0 105 0 90 0C75 0 60 0 45 0C30 0 15 0 7.5 0L0 0Z" fill="#87a6f3"></path><path d="M0 197L7.5 183.5C15 170 30 143 45 141.3C60 139.7 75 163.3 90 159C105 154.7 120 122.3 135 107.3C150 92.3 165 94.7 180 94.7C195 94.7 210 92.3 225 99.8C240 107.3 255 124.7 270 139.7C285 154.7 300 167.3 315 171.8C330 176.3 345 172.7 360 158.2C375 143.7 390 118.3 405 120.8C420 123.3 435 153.7 450 164.5C465 175.3 480 166.7 495 166.8C510 167 525 176 540 182.5C555 189 570 193 585 182.7C600 172.3 615 147.7 630 137.5C645 127.3 660 131.7 675 134.2C690 136.7 705 137.3 720 130.5C735 123.7 750 109.3 765 101.8C780 94.3 795 93.7 810 99.7C825 105.7 840 118.3 855 133.2C870 148 885 165 892.5 173.5L900 182L900 0L892.5 0C885 0 870 0 855 0C840 0 825 0 810 0C795 0 780 0 765 0C750 0 735 0 720 0C705 0 690 0 675 0C660 0 645 0 630 0C615 0 600 0 585 0C570 0 555 0 540 0C525 0 510 0 495 0C480 0 465 0 450 0C435 0 420 0 405 0C390 0 375 0 360 0C345 0 330 0 315 0C300 0 285 0 270 0C255 0 240 0 225 0C210 0 195 0 180 0C165 0 150 0 135 0C120 0 105 0 90 0C75 0 60 0 45 0C30 0 15 0 7.5 0L0 0Z" fill="#9a9ef2"></path><path d="M0 111L7.5 115.8C15 120.7 30 130.3 45 128.5C60 126.7 75 113.3 90 111.8C105 110.3 120 120.7 135 133.8C150 147 165 163 180 171.5C195 180 210 181 225 175.8C240 170.7 255 159.3 270 143C285 126.7 300 105.3 315 103.5C330 101.7 345 119.3 360 123.2C375 127 390 117 405 109C420 101 435 95 450 107.2C465 119.3 480 149.7 495 162.7C510 175.7 525 171.3 540 167.2C555 163 570 159 585 157.8C600 156.7 615 158.3 630 145.5C645 132.7 660 105.3 675 95.7C690 86 705 94 720 98.3C735 102.7 750 103.3 765 115C780 126.7 795 149.3 810 155.2C825 161 840 150 855 133.5C870 117 885 95 892.5 84L900 73L900 0L892.5 0C885 0 870 0 855 0C840 0 825 0 810 0C795 0 780 0 765 0C750 0 735 0 720 0C705 0 690 0 675 0C660 0 645 0 630 0C615 0 600 0 585 0C570 0 555 0 540 0C525 0 510 0 495 0C480 0 465 0 450 0C435 0 420 0 405 0C390 0 375 0 360 0C345 0 330 0 315 0C300 0 285 0 270 0C255 0 240 0 225 0C210 0 195 0 180 0C165 0 150 0 135 0C120 0 105 0 90 0C75 0 60 0 45 0C30 0 15 0 7.5 0L0 0Z" fill="#ae95ee"></path><path d="M0 70L7.5 77.2C15 84.3 30 98.7 45 108.2C60 117.7 75 122.3 90 120.8C105 119.3 120 111.7 135 109.2C150 106.7 165 109.3 180 106.7C195 104 210 96 225 102.8C240 109.7 255 131.3 270 133C285 134.7 300 116.3 315 109C330 101.7 345 105.3 360 106C375 106.7 390 104.3 405 101.5C420 98.7 435 95.3 450 96.7C465 98 480 104 495 105.3C510 106.7 525 103.3 540 110.3C555 117.3 570 134.7 585 134.8C600 135 615 118 630 105.3C645 92.7 660 84.3 675 81.8C690 79.3 705 82.7 720 85.5C735 88.3 750 90.7 765 100.3C780 110 795 127 810 132.3C825 137.7 840 131.3 855 118.8C870 106.3 885 87.7 892.5 78.3L900 69L900 0L892.5 0C885 0 870 0 855 0C840 0 825 0 810 0C795 0 780 0 765 0C750 0 735 0 720 0C705 0 690 0 675 0C660 0 645 0 630 0C615 0 600 0 585 0C570 0 555 0 540 0C525 0 510 0 495 0C480 0 465 0 450 0C435 0 420 0 405 0C390 0 375 0 360 0C345 0 330 0 315 0C300 0 285 0 270 0C255 0 240 0 225 0C210 0 195 0 180 0C165 0 150 0 135 0C120 0 105 0 90 0C75 0 60 0 45 0C30 0 15 0 7.5 0L0 0Z" fill="#c28be6"></path><path d="M0 78L7.5 82C15 86 30 94 45 100.8C60 107.7 75 113.3 90 112.5C105 111.7 120 104.3 135 95C150 85.7 165 74.3 180 71.5C195 68.7 210 74.3 225 80.3C240 86.3 255 92.7 270 97.7C285 102.7 300 106.3 315 110.2C330 114 345 118 360 115C375 112 390 102 405 90.2C420 78.3 435 64.7 450 65.7C465 66.7 480 82.3 495 90.7C510 99 525 100 540 93.2C555 86.3 570 71.7 585 67.8C600 64 615 71 630 77.3C645 83.7 660 89.3 675 90.7C690 92 705 89 720 90.7C735 92.3 750 98.7 765 101.2C780 103.7 795 102.3 810 97.3C825 92.3 840 83.7 855 83.3C870 83 885 91 892.5 95L900 99L900 0L892.5 0C885 0 870 0 855 0C840 0 825 0 810 0C795 0 780 0 765 0C750 0 735 0 720 0C705 0 690 0 675 0C660 0 645 0 630 0C615 0 600 0 585 0C570 0 555 0 540 0C525 0 510 0 495 0C480 0 465 0 450 0C435 0 420 0 405 0C390 0 375 0 360 0C345 0 330 0 315 0C300 0 285 0 270 0C255 0 240 0 225 0C210 0 195 0 180 0C165 0 150 0 135 0C120 0 105 0 90 0C75 0 60 0 45 0C30 0 15 0 7.5 0L0 0Z" fill="#d580da"></path><path d="M0 39L7.5 45.8C15 52.7 30 66.3 45 70.8C60 75.3 75 70.7 90 74.5C105 78.3 120 90.7 135 96C150 101.3 165 99.7 180 97C195 94.3 210 90.7 225 90C240 89.3 255 91.7 270 91.3C285 91 300 88 315 82C330 76 345 67 360 60.8C375 54.7 390 51.3 405 57.7C420 64 435 80 450 81.5C465 83 480 70 495 62.5C510 55 525 53 540 60.2C555 67.3 570 83.7 585 82.7C600 81.7 615 63.3 630 56.3C645 49.3 660 53.7 675 55.8C690 58 705 58 720 59.3C735 60.7 750 63.3 765 62.8C780 62.3 795 58.7 810 58.3C825 58 840 61 855 66C870 71 885 78 892.5 81.5L900 85L900 0L892.5 0C885 0 870 0 855 0C840 0 825 0 810 0C795 0 780 0 765 0C750 0 735 0 720 0C705 0 690 0 675 0C660 0 645 0 630 0C615 0 600 0 585 0C570 0 555 0 540 0C525 0 510 0 495 0C480 0 465 0 450 0C435 0 420 0 405 0C390 0 375 0 360 0C345 0 330 0 315 0C300 0 285 0 270 0C255 0 240 0 225 0C210 0 195 0 180 0C165 0 150 0 135 0C120 0 105 0 90 0C75 0 60 0 45 0C30 0 15 0 7.5 0L0 0Z" fill="#e674cb"></path><path d="M0 34L7.5 34.5C15 35 30 36 45 42.5C60 49 75 61 90 66.2C105 71.3 120 69.7 135 61.3C150 53 165 38 180 31.2C195 24.3 210 25.7 225 24.7C240 23.7 255 20.3 270 23.7C285 27 300 37 315 39.2C330 41.3 345 35.7 360 31.2C375 26.7 390 23.3 405 28.5C420 33.7 435 47.3 450 50.8C465 54.3 480 47.7 495 49.5C510 51.3 525 61.7 540 62.5C555 63.3 570 54.7 585 52.2C600 49.7 615 53.3 630 52.2C645 51 660 45 675 48C690 51 705 63 720 66C735 69 750 63 765 60C780 57 795 57 810 53.3C825 49.7 840 42.3 855 41.7C870 41 885 47 892.5 50L900 53L900 0L892.5 0C885 0 870 0 855 0C840 0 825 0 810 0C795 0 780 0 765 0C750 0 735 0 720 0C705 0 690 0 675 0C660 0 645 0 630 0C615 0 600 0 585 0C570 0 555 0 540 0C525 0 510 0 495 0C480 0 465 0 450 0C435 0 420 0 405 0C390 0 375 0 360 0C345 0 330 0 315 0C300 0 285 0 270 0C255 0 240 0 225 0C210 0 195 0 180 0C165 0 150 0 135 0C120 0 105 0 90 0C75 0 60 0 45 0C30 0 15 0 7.5 0L0 0Z" fill="#f468b8"></path><path d="M0 43L7.5 37.7C15 32.3 30 21.7 45 18.2C60 14.7 75 18.3 90 23.2C105 28 120 34 135 32.2C150 30.3 165 20.7 180 15.5C195 10.3 210 9.7 225 14.3C240 19 255 29 270 32.8C285 36.7 300 34.3 315 28.8C330 23.3 345 14.7 360 16.2C375 17.7 390 29.3 405 33.7C420 38 435 35 450 30.8C465 26.7 480 21.3 495 16.8C510 12.3 525 8.7 540 12C555 15.3 570 25.7 585 32C600 38.3 615 40.7 630 41C645 41.3 660 39.7 675 34.2C690 28.7 705 19.3 720 19.3C735 19.3 750 28.7 765 29.3C780 30 795 22 810 22.8C825 23.7 840 33.3 855 32.8C870 32.3 885 21.7 892.5 16.3L900 11L900 0L892.5 0C885 0 870 0 855 0C840 0 825 0 810 0C795 0 780 0 765 0C750 0 735 0 720 0C705 0 690 0 675 0C660 0 645 0 630 0C615 0 600 0 585 0C570 0 555 0 540 0C525 0 510 0 495 0C480 0 465 0 450 0C435 0 420 0 405 0C390 0 375 0 360 0C345 0 330 0 315 0C300 0 285 0 270 0C255 0 240 0 225 0C210 0 195 0 180 0C165 0 150 0 135 0C120 0 105 0 90 0C75 0 60 0 45 0C30 0 15 0 7.5 0L0 0Z" fill="#ff5da2"></path></svg>