<svg id="visual" viewBox="0 0 900 300" width="900" height="300" xmlns="http://www.w3.org/2000/svg" xmlns:xlink="http://www.w3.org/1999/xlink" version="1.1"><rect x="0" y="0" width="900" height="300" fill="#FF5DA2"></rect><path d="M0 117L7.5 111C15 105 30 93 45 99C60 105 75 129 90 141C105 153 120 153 135 159.2C150 165.3 165 177.7 180 159C195 140.3 210 90.7 225 82.3C240 74 255 107 270 125C285 143 300 146 315 139C330 132 345 115 360 122C375 129 390 160 405 153.3C420 146.7 435 102.3 450 79.5C465 56.7 480 55.3 495 74.5C510 93.7 525 133.3 540 133.8C555 134.3 570 95.7 585 73.3C600 51 615 45 630 49.8C645 54.7 660 70.3 675 79.2C690 88 705 90 720 102.3C735 114.7 750 137.3 765 150.2C780 163 795 166 810 147.5C825 129 840 89 855 78.2C870 67.3 885 85.7 892.5 94.8L900 104L900 301L892.5 301C885 301 870 301 855 301C840 301 825 301 810 301C795 301 780 301 765 301C750 301 735 301 720 301C705 301 690 301 675 301C660 301 645 301 630 301C615 301 600 301 585 301C570 301 555 301 540 301C525 301 510 301 495 301C480 301 465 301 450 301C435 301 420 301 405 301C390 301 375 301 360 301C345 301 330 301 315 301C300 301 285 301 270 301C255 301 240 301 225 301C210 301 195 301 180 301C165 301 150 301 135 301C120 301 105 301 90 301C75 301 60 301 45 301C30 301 15 301 7.5 301L0 301Z" fill="#ff5da2"></path><path d="M0 162L7.5 163.2C15 164.3 30 166.7 45 158.8C60 151 75 133 90 118.7C105 104.3 120 93.7 135 104.3C150 115 165 147 180 146.3C195 145.7 210 112.3 225 103.7C240 95 255 111 270 110.7C285 110.3 300 93.7 315 87C330 80.3 345 83.7 360 93.2C375 102.7 390 118.3 405 116.7C420 115 435 96 450 106.3C465 116.7 480 156.3 495 171.2C510 186 525 176 540 161.7C555 147.3 570 128.7 585 136C600 143.3 615 176.7 630 172C645 167.3 660 124.7 675 104.2C690 83.7 705 85.3 720 104.3C735 123.3 750 159.7 765 170C780 180.3 795 164.7 810 164.5C825 164.3 840 179.7 855 178.5C870 177.3 885 159.7 892.5 150.8L900 142L900 301L892.5 301C885 301 870 301 855 301C840 301 825 301 810 301C795 301 780 301 765 301C750 301 735 301 720 301C705 301 690 301 675 301C660 301 645 301 630 301C615 301 600 301 585 301C570 301 555 301 540 301C525 301 510 301 495 301C480 301 465 301 450 301C435 301 420 301 405 301C390 301 375 301 360 301C345 301 330 301 315 301C300 301 285 301 270 301C255 301 240 301 225 301C210 301 195 301 180 301C165 301 150 301 135 301C120 301 105 301 90 301C75 301 60 301 45 301C30 301 15 301 7.5 301L0 301Z" fill="#f648aa"></path><path d="M0 159L7.5 157.8C15 156.7 30 154.3 45 165.5C60 176.7 75 201.3 90 214.5C105 227.7 120 229.3 135 218.3C150 207.3 165 183.7 180 165.5C195 147.3 210 134.7 225 137.8C240 141 255 160 270 164.8C285 169.7 300 160.3 315 153.3C330 146.3 345 141.7 360 138.2C375 134.7 390 132.3 405 130.3C420 128.3 435 126.7 450 134.3C465 142 480 159 495 169.8C510 180.7 525 185.3 540 190.3C555 195.3 570 200.7 585 201.5C600 202.3 615 198.7 630 196.7C645 194.7 660 194.3 675 200.5C690 206.7 705 219.3 720 220.2C735 221 750 210 765 203.2C780 196.3 795 193.7 810 189.3C825 185 840 179 855 177.2C870 175.3 885 177.7 892.5 178.8L900 180L900 301L892.5 301C885 301 870 301 855 301C840 301 825 301 810 301C795 301 780 301 765 301C750 301 735 301 720 301C705 301 690 301 675 301C660 301 645 301 630 301C615 301 600 301 585 301C570 301 555 301 540 301C525 301 510 301 495 301C480 301 465 301 450 301C435 301 420 301 405 301C390 301 375 301 360 301C345 301 330 301 315 301C300 301 285 301 270 301C255 301 240 301 225 301C210 301 195 301 180 301C165 301 150 301 135 301C120 301 105 301 90 301C75 301 60 301 45 301C30 301 15 301 7.5 301L0 301Z" fill="#e932b5"></path><path d="M0 156L7.5 159C15 162 30 168 45 171.5C60 175 75 176 90 172.7C105 169.3 120 161.7 135 164.3C150 167 165 180 180 190C195 200 210 207 225 209.5C240 212 255 210 270 203C285 196 300 184 315 177.8C330 171.7 345 171.3 360 179.3C375 187.3 390 203.7 405 210C420 216.3 435 212.7 450 216.2C465 219.7 480 230.3 495 229.2C510 228 525 215 540 207.8C555 200.7 570 199.3 585 196.7C600 194 615 190 630 185.8C645 181.7 660 177.3 675 186.5C690 195.7 705 218.3 720 222.7C735 227 750 213 765 207C780 201 795 203 810 203.2C825 203.3 840 201.7 855 202.8C870 204 885 208 892.5 210L900 212L900 301L892.5 301C885 301 870 301 855 301C840 301 825 301 810 301C795 301 780 301 765 301C750 301 735 301 720 301C705 301 690 301 675 301C660 301 645 301 630 301C615 301 600 301 585 301C570 301 555 301 540 301C525 301 510 301 495 301C480 301 465 301 450 301C435 301 420 301 405 301C390 301 375 301 360 301C345 301 330 301 315 301C300 301 285 301 270 301C255 301 240 301 225 301C210 301 195 301 180 301C165 301 150 301 135 301C120 301 105 301 90 301C75 301 60 301 45 301C30 301 15 301 7.5 301L0 301Z" fill="#d71fc2"></path><path d="M0 194L7.5 196C15 198 30 202 45 207.3C60 212.7 75 219.3 90 223.5C105 227.7 120 229.3 135 223.7C150 218 165 205 180 199.2C195 193.3 210 194.7 225 195.3C240 196 255 196 270 195.3C285 194.7 300 193.3 315 192.2C330 191 345 190 360 200.2C375 210.3 390 231.7 405 241.7C420 251.7 435 250.3 450 244.8C465 239.3 480 229.7 495 220.8C510 212 525 204 540 211.8C555 219.7 570 243.3 585 249.5C600 255.7 615 244.3 630 233.7C645 223 660 213 675 205.5C690 198 705 193 720 192.8C735 192.7 750 197.3 765 206.3C780 215.3 795 228.7 810 231.3C825 234 840 226 855 220C870 214 885 210 892.5 208L900 206L900 301L892.5 301C885 301 870 301 855 301C840 301 825 301 810 301C795 301 780 301 765 301C750 301 735 301 720 301C705 301 690 301 675 301C660 301 645 301 630 301C615 301 600 301 585 301C570 301 555 301 540 301C525 301 510 301 495 301C480 301 465 301 450 301C435 301 420 301 405 301C390 301 375 301 360 301C345 301 330 301 315 301C300 301 285 301 270 301C255 301 240 301 225 301C210 301 195 301 180 301C165 301 150 301 135 301C120 301 105 301 90 301C75 301 60 301 45 301C30 301 15 301 7.5 301L0 301Z" fill="#be13d0"></path><path d="M0 226L7.5 228.8C15 231.7 30 237.3 45 245.3C60 253.3 75 263.7 90 264C105 264.3 120 254.7 135 249.2C150 243.7 165 242.3 180 241.7C195 241 210 241 225 246.8C240 252.7 255 264.3 270 265.8C285 267.3 300 258.7 315 254.5C330 250.3 345 250.7 360 257.5C375 264.3 390 277.7 405 280.3C420 283 435 275 450 270.3C465 265.7 480 264.3 495 260C510 255.7 525 248.3 540 245C555 241.7 570 242.3 585 242.5C600 242.7 615 242.3 630 244.5C645 246.7 660 251.3 675 249.7C690 248 705 240 720 245C735 250 750 268 765 267.7C780 267.3 795 248.7 810 243.7C825 238.7 840 247.3 855 253.2C870 259 885 262 892.5 263.5L900 265L900 301L892.5 301C885 301 870 301 855 301C840 301 825 301 810 301C795 301 780 301 765 301C750 301 735 301 720 301C705 301 690 301 675 301C660 301 645 301 630 301C615 301 600 301 585 301C570 301 555 301 540 301C525 301 510 301 495 301C480 301 465 301 450 301C435 301 420 301 405 301C390 301 375 301 360 301C345 301 330 301 315 301C300 301 285 301 270 301C255 301 240 301 225 301C210 301 195 301 180 301C165 301 150 301 135 301C120 301 105 301 90 301C75 301 60 301 45 301C30 301 15 301 7.5 301L0 301Z" fill="#9c19e0"></path></svg>