<svg id="visual" viewBox="0 0 900 300" width="900" height="300" xmlns="http://www.w3.org/2000/svg" xmlns:xlink="http://www.w3.org/1999/xlink" version="1.1"><rect x="0" y="0" width="900" height="300" fill="#000D6B"></rect><path d="M0 96L7.5 83.5C15 71 30 46 45 53C60 60 75 99 90 126.7C105 154.3 120 170.7 135 160C150 149.3 165 111.7 180 84.3C195 57 210 40 225 37C240 34 255 45 270 45.3C285 45.7 300 35.3 315 27.7C330 20 345 15 360 41.3C375 67.7 390 125.3 405 141.3C420 157.3 435 131.7 450 108C465 84.3 480 62.7 495 63.8C510 65 525 89 540 93.7C555 98.3 570 83.7 585 82.2C600 80.7 615 92.3 630 92.8C645 93.3 660 82.7 675 84.2C690 85.7 705 99.3 720 110.3C735 121.3 750 129.7 765 129.7C780 129.7 795 121.3 810 113.2C825 105 840 97 855 96.5C870 96 885 103 892.5 106.5L900 110L900 301L892.5 301C885 301 870 301 855 301C840 301 825 301 810 301C795 301 780 301 765 301C750 301 735 301 720 301C705 301 690 301 675 301C660 301 645 301 630 301C615 301 600 301 585 301C570 301 555 301 540 301C525 301 510 301 495 301C480 301 465 301 450 301C435 301 420 301 405 301C390 301 375 301 360 301C345 301 330 301 315 301C300 301 285 301 270 301C255 301 240 301 225 301C210 301 195 301 180 301C165 301 150 301 135 301C120 301 105 301 90 301C75 301 60 301 45 301C30 301 15 301 7.5 301L0 301Z" fill="#000d6b"></path><path d="M0 48L7.5 59.8C15 71.7 30 95.3 45 109.2C60 123 75 127 90 115.2C105 103.3 120 75.7 135 77.8C150 80 165 112 180 130C195 148 210 152 225 135.7C240 119.3 255 82.7 270 72.8C285 63 300 80 315 103.2C330 126.3 345 155.7 360 151.5C375 147.3 390 109.7 405 89.7C420 69.7 435 67.3 450 81.2C465 95 480 125 495 143.3C510 161.7 525 168.3 540 150.7C555 133 570 91 585 82.5C600 74 615 99 630 112.3C645 125.7 660 127.3 675 136.8C690 146.3 705 163.7 720 163.7C735 163.7 750 146.3 765 147.2C780 148 795 167 810 157.8C825 148.7 840 111.3 855 108C870 104.7 885 135.3 892.5 150.7L900 166L900 301L892.5 301C885 301 870 301 855 301C840 301 825 301 810 301C795 301 780 301 765 301C750 301 735 301 720 301C705 301 690 301 675 301C660 301 645 301 630 301C615 301 600 301 585 301C570 301 555 301 540 301C525 301 510 301 495 301C480 301 465 301 450 301C435 301 420 301 405 301C390 301 375 301 360 301C345 301 330 301 315 301C300 301 285 301 270 301C255 301 240 301 225 301C210 301 195 301 180 301C165 301 150 301 135 301C120 301 105 301 90 301C75 301 60 301 45 301C30 301 15 301 7.5 301L0 301Z" fill="#1a117a"></path><path d="M0 218L7.5 212.2C15 206.3 30 194.7 45 171.3C60 148 75 113 90 114.7C105 116.3 120 154.7 135 164.7C150 174.7 165 156.3 180 145.7C195 135 210 132 225 141.8C240 151.7 255 174.3 270 169.2C285 164 300 131 315 115.2C330 99.3 345 100.7 360 101.7C375 102.7 390 103.3 405 111.7C420 120 435 136 450 137.7C465 139.3 480 126.7 495 115.5C510 104.3 525 94.7 540 109C555 123.3 570 161.7 585 158.8C600 156 615 112 630 111.2C645 110.3 660 152.7 675 161.2C690 169.7 705 144.3 720 142.2C735 140 750 161 765 166.3C780 171.7 795 161.3 810 162.7C825 164 840 177 855 186.3C870 195.7 885 201.3 892.5 204.2L900 207L900 301L892.5 301C885 301 870 301 855 301C840 301 825 301 810 301C795 301 780 301 765 301C750 301 735 301 720 301C705 301 690 301 675 301C660 301 645 301 630 301C615 301 600 301 585 301C570 301 555 301 540 301C525 301 510 301 495 301C480 301 465 301 450 301C435 301 420 301 405 301C390 301 375 301 360 301C345 301 330 301 315 301C300 301 285 301 270 301C255 301 240 301 225 301C210 301 195 301 180 301C165 301 150 301 135 301C120 301 105 301 90 301C75 301 60 301 45 301C30 301 15 301 7.5 301L0 301Z" fill="#2d1489"></path><path d="M0 224L7.5 222.7C15 221.3 30 218.7 45 201.8C60 185 75 154 90 151.2C105 148.3 120 173.7 135 177.3C150 181 165 163 180 150.8C195 138.7 210 132.3 225 138.5C240 144.7 255 163.3 270 168C285 172.7 300 163.3 315 160.7C330 158 345 162 360 154C375 146 390 126 405 131.2C420 136.3 435 166.7 450 181.7C465 196.7 480 196.3 495 183.5C510 170.7 525 145.3 540 144.2C555 143 570 166 585 177.7C600 189.3 615 189.7 630 177.8C645 166 660 142 675 142.5C690 143 705 168 720 179.7C735 191.3 750 189.7 765 183C780 176.3 795 164.7 810 153.3C825 142 840 131 855 141.7C870 152.3 885 184.7 892.5 200.8L900 217L900 301L892.5 301C885 301 870 301 855 301C840 301 825 301 810 301C795 301 780 301 765 301C750 301 735 301 720 301C705 301 690 301 675 301C660 301 645 301 630 301C615 301 600 301 585 301C570 301 555 301 540 301C525 301 510 301 495 301C480 301 465 301 450 301C435 301 420 301 405 301C390 301 375 301 360 301C345 301 330 301 315 301C300 301 285 301 270 301C255 301 240 301 225 301C210 301 195 301 180 301C165 301 150 301 135 301C120 301 105 301 90 301C75 301 60 301 45 301C30 301 15 301 7.5 301L0 301Z" fill="#3f1798"></path><path d="M0 194L7.5 193.2C15 192.3 30 190.7 45 182.2C60 173.7 75 158.3 90 148C105 137.7 120 132.3 135 134.2C150 136 165 145 180 161.5C195 178 210 202 225 205.3C240 208.7 255 191.3 270 179.5C285 167.7 300 161.3 315 164.3C330 167.3 345 179.7 360 187C375 194.3 390 196.7 405 203.7C420 210.7 435 222.3 450 219C465 215.7 480 197.3 495 194.8C510 192.3 525 205.7 540 212.2C555 218.7 570 218.3 585 216.2C600 214 615 210 630 201.2C645 192.3 660 178.7 675 165.7C690 152.7 705 140.3 720 141.8C735 143.3 750 158.7 765 159.8C780 161 795 148 810 156.8C825 165.7 840 196.3 855 202.5C870 208.7 885 190.3 892.5 181.2L900 172L900 301L892.5 301C885 301 870 301 855 301C840 301 825 301 810 301C795 301 780 301 765 301C750 301 735 301 720 301C705 301 690 301 675 301C660 301 645 301 630 301C615 301 600 301 585 301C570 301 555 301 540 301C525 301 510 301 495 301C480 301 465 301 450 301C435 301 420 301 405 301C390 301 375 301 360 301C345 301 330 301 315 301C300 301 285 301 270 301C255 301 240 301 225 301C210 301 195 301 180 301C165 301 150 301 135 301C120 301 105 301 90 301C75 301 60 301 45 301C30 301 15 301 7.5 301L0 301Z" fill="#5119a7"></path><path d="M0 160L7.5 162.3C15 164.7 30 169.3 45 178C60 186.7 75 199.3 90 210.2C105 221 120 230 135 232.5C150 235 165 231 180 228.3C195 225.7 210 224.3 225 229.2C240 234 255 245 270 239.3C285 233.7 300 211.3 315 195.7C330 180 345 171 360 171C375 171 390 180 405 185C420 190 435 191 450 189.5C465 188 480 184 495 180C510 176 525 172 540 177C555 182 570 196 585 195.5C600 195 615 180 630 186.7C645 193.3 660 221.7 675 231C690 240.3 705 230.7 720 227C735 223.3 750 225.7 765 215.2C780 204.7 795 181.3 810 177.3C825 173.3 840 188.7 855 192.7C870 196.7 885 189.3 892.5 185.7L900 182L900 301L892.5 301C885 301 870 301 855 301C840 301 825 301 810 301C795 301 780 301 765 301C750 301 735 301 720 301C705 301 690 301 675 301C660 301 645 301 630 301C615 301 600 301 585 301C570 301 555 301 540 301C525 301 510 301 495 301C480 301 465 301 450 301C435 301 420 301 405 301C390 301 375 301 360 301C345 301 330 301 315 301C300 301 285 301 270 301C255 301 240 301 225 301C210 301 195 301 180 301C165 301 150 301 135 301C120 301 105 301 90 301C75 301 60 301 45 301C30 301 15 301 7.5 301L0 301Z" fill="#631bb6"></path><path d="M0 256L7.5 257C15 258 30 260 45 257.7C60 255.3 75 248.7 90 235.7C105 222.7 120 203.3 135 200.5C150 197.7 165 211.3 180 212.7C195 214 210 203 225 196.8C240 190.7 255 189.3 270 201.2C285 213 300 238 315 243.8C330 249.7 345 236.3 360 234.3C375 232.3 390 241.7 405 248.7C420 255.7 435 260.3 450 249.2C465 238 480 211 495 205.5C510 200 525 216 540 226C555 236 570 240 585 245.7C600 251.3 615 258.7 630 249.7C645 240.7 660 215.3 675 210.7C690 206 705 222 720 224C735 226 750 214 765 207C780 200 795 198 810 196.2C825 194.3 840 192.7 855 195.2C870 197.7 885 204.3 892.5 207.7L900 211L900 301L892.5 301C885 301 870 301 855 301C840 301 825 301 810 301C795 301 780 301 765 301C750 301 735 301 720 301C705 301 690 301 675 301C660 301 645 301 630 301C615 301 600 301 585 301C570 301 555 301 540 301C525 301 510 301 495 301C480 301 465 301 450 301C435 301 420 301 405 301C390 301 375 301 360 301C345 301 330 301 315 301C300 301 285 301 270 301C255 301 240 301 225 301C210 301 195 301 180 301C165 301 150 301 135 301C120 301 105 301 90 301C75 301 60 301 45 301C30 301 15 301 7.5 301L0 301Z" fill="#751bc4"></path><path d="M0 247L7.5 248C15 249 30 251 45 252C60 253 75 253 90 254.2C105 255.3 120 257.7 135 259C150 260.3 165 260.7 180 261.2C195 261.7 210 262.3 225 257.5C240 252.7 255 242.3 270 238.3C285 234.3 300 236.7 315 237C330 237.3 345 235.7 360 235.5C375 235.3 390 236.7 405 243.3C420 250 435 262 450 263.8C465 265.7 480 257.3 495 252.2C510 247 525 245 540 242.3C555 239.7 570 236.3 585 237.7C600 239 615 245 630 247.7C645 250.3 660 249.7 675 249C690 248.3 705 247.7 720 251.3C735 255 750 263 765 266.3C780 269.7 795 268.3 810 264.2C825 260 840 253 855 252C870 251 885 256 892.5 258.5L900 261L900 301L892.5 301C885 301 870 301 855 301C840 301 825 301 810 301C795 301 780 301 765 301C750 301 735 301 720 301C705 301 690 301 675 301C660 301 645 301 630 301C615 301 600 301 585 301C570 301 555 301 540 301C525 301 510 301 495 301C480 301 465 301 450 301C435 301 420 301 405 301C390 301 375 301 360 301C345 301 330 301 315 301C300 301 285 301 270 301C255 301 240 301 225 301C210 301 195 301 180 301C165 301 150 301 135 301C120 301 105 301 90 301C75 301 60 301 45 301C30 301 15 301 7.5 301L0 301Z" fill="#881bd2"></path><path d="M0 265L7.5 261.2C15 257.3 30 249.7 45 246C60 242.3 75 242.7 90 242.8C105 243 120 243 135 248.5C150 254 165 265 180 271.3C195 277.7 210 279.3 225 279.5C240 279.7 255 278.3 270 274.8C285 271.3 300 265.7 315 261.2C330 256.7 345 253.3 360 253.8C375 254.3 390 258.7 405 265.7C420 272.7 435 282.3 450 282.7C465 283 480 274 495 271.7C510 269.3 525 273.7 540 274.8C555 276 570 274 585 276.7C600 279.3 615 286.7 630 286.5C645 286.3 660 278.7 675 276.3C690 274 705 277 720 279.3C735 281.7 750 283.3 765 277.8C780 272.3 795 259.7 810 256C825 252.3 840 257.7 855 261.7C870 265.7 885 268.3 892.5 269.7L900 271L900 301L892.5 301C885 301 870 301 855 301C840 301 825 301 810 301C795 301 780 301 765 301C750 301 735 301 720 301C705 301 690 301 675 301C660 301 645 301 630 301C615 301 600 301 585 301C570 301 555 301 540 301C525 301 510 301 495 301C480 301 465 301 450 301C435 301 420 301 405 301C390 301 375 301 360 301C345 301 330 301 315 301C300 301 285 301 270 301C255 301 240 301 225 301C210 301 195 301 180 301C165 301 150 301 135 301C120 301 105 301 90 301C75 301 60 301 45 301C30 301 15 301 7.5 301L0 301Z" fill="#9c19e0"></path></svg>