<svg id="visual" viewBox="0 0 900 300" width="900" height="300" xmlns="http://www.w3.org/2000/svg" xmlns:xlink="http://www.w3.org/1999/xlink" version="1.1"><rect x="0" y="0" width="900" height="300" fill="#001220"></rect><path d="M0 196L25 194.3C50 192.7 100 189.3 150 189.5C200 189.7 250 193.3 300 191.2C350 189 400 181 450 180.7C500 180.3 550 187.7 600 190C650 192.3 700 189.7 750 191.3C800 193 850 199 875 202L900 205L900 301L875 301C850 301 800 301 750 301C700 301 650 301 600 301C550 301 500 301 450 301C400 301 350 301 300 301C250 301 200 301 150 301C100 301 50 301 25 301L0 301Z" fill="#ff5da2"></path><path d="M0 236L25 229.5C50 223 100 210 150 208.7C200 207.3 250 217.7 300 225C350 232.3 400 236.7 450 231C500 225.3 550 209.7 600 209.3C650 209 700 224 750 230.2C800 236.3 850 233.7 875 232.3L900 231L900 301L875 301C850 301 800 301 750 301C700 301 650 301 600 301C550 301 500 301 450 301C400 301 350 301 300 301C250 301 200 301 150 301C100 301 50 301 25 301L0 301Z" fill="#f342ac"></path><path d="M0 243L25 246C50 249 100 255 150 256.5C200 258 250 255 300 250.7C350 246.3 400 240.7 450 240.5C500 240.3 550 245.7 600 244C650 242.3 700 233.7 750 235.3C800 237 850 249 875 255L900 261L900 301L875 301C850 301 800 301 750 301C700 301 650 301 600 301C550 301 500 301 450 301C400 301 350 301 300 301C250 301 200 301 150 301C100 301 50 301 25 301L0 301Z" fill="#e128bb"></path><path d="M0 271L25 265.5C50 260 100 249 150 249.2C200 249.3 250 260.7 300 263C350 265.3 400 258.7 450 258.7C500 258.7 550 265.3 600 263.2C650 261 700 250 750 244.7C800 239.3 850 239.7 875 239.8L900 240L900 301L875 301C850 301 800 301 750 301C700 301 650 301 600 301C550 301 500 301 450 301C400 301 350 301 300 301C250 301 200 301 150 301C100 301 50 301 25 301L0 301Z" fill="#c515cd"></path><path d="M0 267L25 270C50 273 100 279 150 277.8C200 276.7 250 268.3 300 268.7C350 269 400 278 450 281.3C500 284.7 550 282.3 600 277.8C650 273.3 700 266.7 750 267.8C800 269 850 278 875 282.5L900 287L900 301L875 301C850 301 800 301 750 301C700 301 650 301 600 301C550 301 500 301 450 301C400 301 350 301 300 301C250 301 200 301 150 301C100 301 50 301 25 301L0 301Z" fill="#9c19e0"></path></svg>